REM DIRINDEX 1\2\4,1\2\5,1\2\6,1\3\7,1\3\8
REM DIRNAME folder01,folder02,folder03,folder04,folder05,folder06,folder07,folder08
TITLE ""
FILE "016_Lesson 13_Output_Stage.mp3" MP3
  TRACK 01 AUDIO
    TITLE "0:"
    INDEX 01 00:00:00
  TRACK 02 AUDIO
    TITLE "6:cjc128_0851"
    INDEX 01 00:00:13
  TRACK 03 AUDIO
    TITLE "0:"
    INDEX 01 00:03:23
  TRACK 04 AUDIO
    TITLE "6:cjc128_0852"
    INDEX 01 00:04:07
  TRACK 05 AUDIO
    TITLE "0:"
    INDEX 01 00:06:16
  TRACK 06 AUDIO
    TITLE "4:cjc128_0853"
    INDEX 01 00:07:02
  TRACK 07 AUDIO
    TITLE "0:"
    INDEX 01 00:09:28
  TRACK 08 AUDIO
    TITLE "5:cjc128_0854"
    INDEX 01 00:12:36
  TRACK 09 AUDIO
    TITLE "0:"
    INDEX 01 00:15:01
  TRACK 10 AUDIO
    TITLE "6:cjc128_0855"
    INDEX 01 00:15:58
  TRACK 11 AUDIO
    TITLE "0:"
    INDEX 01 00:17:31
  TRACK 12 AUDIO
    TITLE "4:cjc128_0856"
    INDEX 01 00:18:05
  TRACK 13 AUDIO
    TITLE "0:"
    INDEX 01 00:21:62
  TRACK 14 AUDIO
    TITLE "5:cjc128_0857"
    INDEX 01 00:25:43
  TRACK 15 AUDIO
    TITLE "0:"
    INDEX 01 00:28:55
  TRACK 16 AUDIO
    TITLE "6:cjc128_0858"
    INDEX 01 00:29:42
  TRACK 17 AUDIO
    TITLE "0:"
    INDEX 01 00:31:27
  TRACK 18 AUDIO
    TITLE "4:cjc128_0859"
    INDEX 01 00:32:07
  TRACK 19 AUDIO
    TITLE "0:"
    INDEX 01 00:35:12
  TRACK 20 AUDIO
    TITLE "5:cjc128_0860"
    INDEX 01 00:37:61
  TRACK 21 AUDIO
    TITLE "0:"
    INDEX 01 00:40:07
  TRACK 22 AUDIO
    TITLE "6:cjc128_0861"
    INDEX 01 00:40:60
  TRACK 23 AUDIO
    TITLE "0:"
    INDEX 01 00:42:55
  TRACK 24 AUDIO
    TITLE "4:cjc128_0862"
    INDEX 01 00:43:39
  TRACK 25 AUDIO
    TITLE "0:"
    INDEX 01 00:47:58
  TRACK 26 AUDIO
    TITLE "5:cjc128_0863"
    INDEX 01 00:51:48
  TRACK 27 AUDIO
    TITLE "0:"
    INDEX 01 00:54:58
  TRACK 28 AUDIO
    TITLE "6:cjc128_0864"
    INDEX 01 00:55:46
  TRACK 29 AUDIO
    TITLE "0:"
    INDEX 01 00:57:45
  TRACK 30 AUDIO
    TITLE "4:cjc128_0865"
    INDEX 01 00:58:24
  TRACK 31 AUDIO
    TITLE "0:"
    INDEX 01 01:00:66
  TRACK 32 AUDIO
    TITLE "5:cjc128_0866"
    INDEX 01 01:03:00
  TRACK 33 AUDIO
    TITLE "0:"
    INDEX 01 01:05:13
  TRACK 34 AUDIO
    TITLE "6:cjc128_0867"
    INDEX 01 01:05:69
  TRACK 35 AUDIO
    TITLE "0:"
    INDEX 01 01:07:61
  TRACK 36 AUDIO
    TITLE "4:cjc128_0868"
    INDEX 01 01:08:44
  TRACK 37 AUDIO
    TITLE "0:"
    INDEX 01 01:11:03
  TRACK 38 AUDIO
    TITLE "5:cjc128_0869"
    INDEX 01 01:13:28
  TRACK 39 AUDIO
    TITLE "0:"
    INDEX 01 01:15:19
  TRACK 40 AUDIO
    TITLE "6:cjc128_0870"
    INDEX 01 01:15:72
  TRACK 41 AUDIO
    TITLE "0:"
    INDEX 01 01:17:69
  TRACK 42 AUDIO
    TITLE "4:cjc128_0871"
    INDEX 01 01:18:43
  TRACK 43 AUDIO
    TITLE "0:"
    INDEX 01 01:20:63
  TRACK 44 AUDIO
    TITLE "5:cjc128_0872"
    INDEX 01 01:23:38
  TRACK 45 AUDIO
    TITLE "0:"
    INDEX 01 01:25:39
  TRACK 46 AUDIO
    TITLE "6:cjc128_0873"
    INDEX 01 01:26:23
  TRACK 47 AUDIO
    TITLE "0:"
    INDEX 01 01:28:22
  TRACK 48 AUDIO
    TITLE "4:cjc128_0874"
    INDEX 01 01:29:03
  TRACK 49 AUDIO
    TITLE "0:"
    INDEX 01 01:31:28
  TRACK 50 AUDIO
    TITLE "5:cjc128_0875"
    INDEX 01 01:34:16
  TRACK 51 AUDIO
    TITLE "0:"
    INDEX 01 01:36:50
  TRACK 52 AUDIO
    TITLE "6:cjc128_0876"
    INDEX 01 01:37:34
  TRACK 53 AUDIO
    TITLE "0:"
    INDEX 01 01:39:29
  TRACK 54 AUDIO
    TITLE "4:cjc128_0877"
    INDEX 01 01:40:01
  TRACK 55 AUDIO
    TITLE "0:"
    INDEX 01 01:43:19
  TRACK 56 AUDIO
    TITLE "5:cjc128_0878"
    INDEX 01 01:46:45
  TRACK 57 AUDIO
    TITLE "0:"
    INDEX 01 01:49:22
  TRACK 58 AUDIO
    TITLE "6:cjc128_0879"
    INDEX 01 01:50:09
  TRACK 59 AUDIO
    TITLE "0:"
    INDEX 01 01:52:00
  TRACK 60 AUDIO
    TITLE "4:cjc128_0880"
    INDEX 01 01:52:53
  TRACK 61 AUDIO
    TITLE "0:"
    INDEX 01 01:56:30
  TRACK 62 AUDIO
    TITLE "5:cjc128_0881"
    INDEX 01 01:59:57
  TRACK 63 AUDIO
    TITLE "0:"
    INDEX 01 02:02:52
  TRACK 64 AUDIO
    TITLE "6:cjc128_0882"
    INDEX 01 02:03:24
  TRACK 65 AUDIO
    TITLE "0:"
    INDEX 01 02:05:19
  TRACK 66 AUDIO
    TITLE "4:cjc128_0883"
    INDEX 01 02:05:70
  TRACK 67 AUDIO
    TITLE "0:"
    INDEX 01 02:09:58
  TRACK 68 AUDIO
    TITLE "5:cjc128_0884"
    INDEX 01 02:13:59
  TRACK 69 AUDIO
    TITLE "0:"
    INDEX 01 02:17:08
  TRACK 70 AUDIO
    TITLE "6:cjc128_0885"
    INDEX 01 02:17:73
  TRACK 71 AUDIO
    TITLE "0:"
    INDEX 01 02:19:40
  TRACK 72 AUDIO
    TITLE "4:cjc128_0886"
    INDEX 01 02:20:16
  TRACK 73 AUDIO
    TITLE "0:"
    INDEX 01 02:23:36
  TRACK 74 AUDIO
    TITLE "5:cjc128_0887"
    INDEX 01 02:27:14
  TRACK 75 AUDIO
    TITLE "0:"
    INDEX 01 02:30:27
  TRACK 76 AUDIO
    TITLE "6:cjc128_0888"
    INDEX 01 02:31:06
  TRACK 77 AUDIO
    TITLE "0:"
    INDEX 01 02:32:71
  TRACK 78 AUDIO
    TITLE "4:cjc128_0889"
    INDEX 01 02:33:50
  TRACK 79 AUDIO
    TITLE "0:"
    INDEX 01 02:37:03
  TRACK 80 AUDIO
    TITLE "5:cjc128_0890"
    INDEX 01 02:39:57
  TRACK 81 AUDIO
    TITLE "0:"
    INDEX 01 02:42:12
  TRACK 82 AUDIO
    TITLE "6:cjc128_0891"
    INDEX 01 02:42:69
  TRACK 83 AUDIO
    TITLE "0:"
    INDEX 01 02:44:64
  TRACK 84 AUDIO
    TITLE "4:cjc128_0892"
    INDEX 01 02:45:42
  TRACK 85 AUDIO
    TITLE "0:"
    INDEX 01 02:48:19
  TRACK 86 AUDIO
    TITLE "5:cjc128_0893"
    INDEX 01 02:51:13
  TRACK 87 AUDIO
    TITLE "0:"
    INDEX 01 02:53:33
  TRACK 88 AUDIO
    TITLE "6:cjc128_0894"
    INDEX 01 02:54:17
  TRACK 89 AUDIO
    TITLE "0:"
    INDEX 01 02:56:08
  TRACK 90 AUDIO
    TITLE "4:cjc128_0895"
    INDEX 01 02:56:57
  TRACK 91 AUDIO
    TITLE "0:"
    INDEX 01 03:01:15
  TRACK 92 AUDIO
    TITLE "5:cjc128_0896"
    INDEX 01 03:05:48
  TRACK 93 AUDIO
    TITLE "0:"
    INDEX 01 03:09:46
  TRACK 94 AUDIO
    TITLE "6:cjc128_0897"
    INDEX 01 03:10:26
  TRACK 95 AUDIO
    TITLE "0:"
    INDEX 01 03:12:13
  TRACK 96 AUDIO
    TITLE "4:cjc128_0898"
    INDEX 01 03:12:60
  TRACK 97 AUDIO
    TITLE "0:"
    INDEX 01 03:15:72
  TRACK 98 AUDIO
    TITLE "5:cjc128_0899"
    INDEX 01 03:18:59
  TRACK 99 AUDIO
    TITLE "0:"
    INDEX 01 03:21:24
  TRACK 100 AUDIO
    TITLE "6:cjc128_0900"
    INDEX 01 03:21:71
  TRACK 101 AUDIO
    TITLE "0:"
    INDEX 01 03:23:64
  TRACK 102 AUDIO
    TITLE "4:cjc128_0901"
    INDEX 01 03:24:40
  TRACK 103 AUDIO
    TITLE "0:"
    INDEX 01 03:28:55
  TRACK 104 AUDIO
    TITLE "5:cjc128_0902"
    INDEX 01 03:32:57
  TRACK 105 AUDIO
    TITLE "0:"
    INDEX 01 03:36:22
  TRACK 106 AUDIO
    TITLE "6:cjc128_0903"
    INDEX 01 03:37:05
  TRACK 107 AUDIO
    TITLE "0:"
    INDEX 01 03:38:67
  TRACK 108 AUDIO
    TITLE "4:cjc128_0904"
    INDEX 01 03:39:39
  TRACK 109 AUDIO
    TITLE "0:"
    INDEX 01 03:41:29
  TRACK 110 AUDIO
    TITLE "5:cjc128_0905"
    INDEX 01 03:44:05
  TRACK 111 AUDIO
    TITLE "0:"
    INDEX 01 03:46:22
  TRACK 112 AUDIO
    TITLE "6:cjc128_0906"
    INDEX 01 03:46:71
  TRACK 113 AUDIO
    TITLE "0:"
    INDEX 01 03:48:64
  TRACK 114 AUDIO
    TITLE "4:cjc128_0907"
    INDEX 01 03:49:32
  TRACK 115 AUDIO
    TITLE "0:"
    INDEX 01 03:52:15
  TRACK 116 AUDIO
    TITLE "5:cjc128_0908"
    INDEX 01 03:54:68
  TRACK 117 AUDIO
    TITLE "0:"
    INDEX 01 03:57:16
  TRACK 118 AUDIO
    TITLE "6:cjc128_0909"
    INDEX 01 03:57:73
  TRACK 119 AUDIO
    TITLE "0:"
    INDEX 01 03:59:58
  TRACK 120 AUDIO
    TITLE "4:cjc128_0910"
    INDEX 01 04:00:24
  TRACK 121 AUDIO
    TITLE "0:"
    INDEX 01 04:03:58
  TRACK 122 AUDIO
    TITLE "5:cjc128_0911"
    INDEX 01 04:07:40
  TRACK 123 AUDIO
    TITLE "0:"
    INDEX 01 04:10:48
  TRACK 124 AUDIO
    TITLE "6:cjc128_0912"
    INDEX 01 04:11:30
  TRACK 125 AUDIO
    TITLE "0:"
    INDEX 01 04:13:27
  TRACK 126 AUDIO
    TITLE "4:cjc128_0913"
    INDEX 01 04:14:01
  TRACK 127 AUDIO
    TITLE "0:"
    INDEX 01 04:17:01
  TRACK 128 AUDIO
    TITLE "5:cjc128_0914"
    INDEX 01 04:19:72
  TRACK 129 AUDIO
    TITLE "0:"
    INDEX 01 04:22:43
